HIERARCHY
ROOT Root
{
  OFFSET 0.0 0.0 0.0
  CHANNELS 6 Xposition Yposition Zposition Zrotation Yrotation Xrotation
  JOINT Hips
  {
    OFFSET 0.0 100.0 0.0
    CHANNELS 6 Xposition Yposition Zposition Zrotation Yrotation Xrotation
    JOINT Spine1
    {
      OFFSET -0.013727 5.003763 -0.053727
      CHANNELS 3 Zrotation Yrotation Xrotation
      JOINT Spine2
      {
        OFFSET -0.0 7.125301 -0.029825
        CHANNELS 3 Zrotation Yrotation Xrotation
        JOINT Chest
        {
          OFFSET -1e-06 7.550063 -0.815971
          CHANNELS 3 Zrotation Yrotation Xrotation
          JOINT Neck1
          {
            OFFSET -0.181677 26.311295 -0.553348
            CHANNELS 3 Zrotation Yrotation Xrotation
            JOINT Neck2
            {
              OFFSET -3e-06 7.709397 2.302585
              CHANNELS 3 Zrotation Yrotation Xrotation
              JOINT Head
              {
                OFFSET -5e-06 6.128916 1.953709
                CHANNELS 3 Zrotation Yrotation Xrotation
                JOINT HeadEnd
                {
                  OFFSET 0.003598 16.065403 -1.835379
                  CHANNELS 3 Zrotation Yrotation Xrotation
                }
                JOINT Jaw
                {
                  OFFSET 0.002637 0.475592 3.094941
                  CHANNELS 3 Zrotation Yrotation Xrotation
                }
                JOINT LeftEye
                {
                  OFFSET 3.206381 5.380205 7.586883
                  CHANNELS 3 Zrotation Yrotation Xrotation
                }
                JOINT RightEye
                {
                  OFFSET -3.22244 5.361869 7.558234
                  CHANNELS 3 Zrotation Yrotation Xrotation
                }
              }
            }
          }
          JOINT LeftShoulder
          {
            OFFSET 1.621652 23.237164 5.113413
            CHANNELS 3 Zrotation Yrotation Xrotation
            JOINT LeftArm
            {
              OFFSET 14.919846 2e-06 -5.502326
              CHANNELS 3 Zrotation Yrotation Xrotation
              JOINT LeftForeArm
              {
                OFFSET 28.739307 0.0 -0.002588
                CHANNELS 3 Zrotation Yrotation Xrotation
                JOINT LeftHand
                {
                  OFFSET 27.093981 -1e-06 0.002609
                  CHANNELS 3 Zrotation Yrotation Xrotation
                  JOINT LeftHandThumb1
                  {
                    OFFSET 2.276482 -1.392045 3.191413
                    CHANNELS 3 Zrotation Yrotation Xrotation
                    JOINT LeftHandThumb2
                    {
                      OFFSET 4.012836 -1.828127 1.641654
                      CHANNELS 3 Zrotation Yrotation Xrotation
                      JOINT LeftHandThumb3
                      {
                        OFFSET 2.798515 0.0 -3e-06
                        CHANNELS 3 Zrotation Yrotation Xrotation
                        JOINT LeftHandThumbEnd
                        {
                          OFFSET 3.180793 -4e-06 4e-06
                          CHANNELS 3 Zrotation Yrotation Xrotation
                        }
                      }
                    }
                  }
                  JOINT LeftHandIndex1
                  {
                    OFFSET 3.247555 -0.531998 2.296169
                    CHANNELS 3 Zrotation Yrotation Xrotation
                    JOINT LeftHandIndex2
                    {
                      OFFSET 6.364578 0.01206 0.1786
                      CHANNELS 3 Zrotation Yrotation Xrotation
                      JOINT LeftHandIndex3
                      {
                        OFFSET 3.662364 0.0 0.0
                        CHANNELS 3 Zrotation Yrotation Xrotation
                        JOINT LeftHandIndex4
                        {
                          OFFSET 2.329242 4e-06 4e-06
                          CHANNELS 3 Zrotation Yrotation Xrotation
                          JOINT LeftHandIndexEnd
                          {
                            OFFSET 2.759615 -0.180537 -0.113024
                            CHANNELS 3 Zrotation Yrotation Xrotation
                          }
                        }
                      }
                    }
                  }
                  JOINT LeftHandMiddle1
                  {
                    OFFSET 3.163495 0.240981 1.000332
                    CHANNELS 3 Zrotation Yrotation Xrotation
                    JOINT LeftHandMiddle2
                    {
                      OFFSET 6.19078 -0.259278 -1.002548
                      CHANNELS 3 Zrotation Yrotation Xrotation
                      JOINT LeftHandMiddle3
                      {
                        OFFSET 4.35652 -4e-06 -1e-06
                        CHANNELS 3 Zrotation Yrotation Xrotation
                        JOINT LeftHandMiddle4
                        {
                          OFFSET 2.996877 -8e-06 0.0
                          CHANNELS 3 Zrotation Yrotation Xrotation
                          JOINT LeftHandMiddleEnd
                          {
                            OFFSET 2.304287 -0.294569 -0.031741
                            CHANNELS 3 Zrotation Yrotation Xrotation
                          }
                        }
                      }
                    }
                  }
                  JOINT LeftHandRing1
                  {
                    OFFSET 2.882643 -0.053652 -0.322543
                    CHANNELS 3 Zrotation Yrotation Xrotation
                    JOINT LeftHandRing2
                    {
                      OFFSET 5.854541 -0.486202 -1.373841
                      CHANNELS 3 Zrotation Yrotation Xrotation
                      JOINT LeftHandRing3
                      {
                        OFFSET 4.350578 0.0 3e-06
                        CHANNELS 3 Zrotation Yrotation Xrotation
                        JOINT LeftHandRing4
                        {
                          OFFSET 2.651321 7e-06 2e-06
                          CHANNELS 3 Zrotation Yrotation Xrotation
                          JOINT LeftHandRingEnd
                          {
                            OFFSET 1.936105 0.077687 -7.1e-05
                            CHANNELS 3 Zrotation Yrotation Xrotation
                          }
                        }
                      }
                    }
                  }
                  JOINT LeftHandPinky1
                  {
                    OFFSET 2.8655 -0.310005 -1.600378
                    CHANNELS 3 Zrotation Yrotation Xrotation
                    JOINT LeftHandPinky2
                    {
                      OFFSET 5.087849 -1.331141 -1.77123
                      CHANNELS 3 Zrotation Yrotation Xrotation
                      JOINT LeftHandPinky3
                      {
                        OFFSET 3.070974 4e-06 0.0
                        CHANNELS 3 Zrotation Yrotation Xrotation
                        JOINT LeftHandPinky4
                        {
                          OFFSET 1.549672 0.0 1e-06
                          CHANNELS 3 Zrotation Yrotation Xrotation
                          JOINT LeftHandPinkyEnd
                          {
                            OFFSET 1.944893 -0.157802 0.057219
                            CHANNELS 3 Zrotation Yrotation Xrotation
                          }
                        }
                      }
                    }
                  }
                }
              }
            }
          }
          JOINT RightShoulder
          {
            OFFSET -1.380118 23.180309 5.214158
            CHANNELS 3 Zrotation Yrotation Xrotation
            JOINT RightArm
            {
              OFFSET -15.037196 1.2e-05 -5.545604
              CHANNELS 3 Zrotation Yrotation Xrotation
              JOINT RightForeArm
              {
                OFFSET -28.736639 2e-06 -0.002597
                CHANNELS 3 Zrotation Yrotation Xrotation
                JOINT RightHand
                {
                  OFFSET -27.133619 -0.0 0.002613
                  CHANNELS 3 Zrotation Yrotation Xrotation
                  JOINT RightHandThumb1
                  {
                    OFFSET -2.274032 -1.383988 3.163127
                    CHANNELS 3 Zrotation Yrotation Xrotation
                    JOINT RightHandThumb2
                    {
                      OFFSET -4.011429 -1.827466 1.640914
                      CHANNELS 3 Zrotation Yrotation Xrotation
                      JOINT RightHandThumb3
                      {
                        OFFSET -2.794935 -4e-06 -3e-06
                        CHANNELS 3 Zrotation Yrotation Xrotation
                        JOINT RightHandThumbEnd
                        {
                          OFFSET -3.183852 4e-06 1e-06
                          CHANNELS 3 Zrotation Yrotation Xrotation
                        }
                      }
                    }
                  }
                  JOINT RightHandIndex1
                  {
                    OFFSET -3.253266 -0.520057 2.282866
                    CHANNELS 3 Zrotation Yrotation Xrotation
                    JOINT RightHandIndex2
                    {
                      OFFSET -6.341917 0.012471 0.178266
                      CHANNELS 3 Zrotation Yrotation Xrotation
                      JOINT RightHandIndex3
                      {
                        OFFSET -3.654871 -8e-06 -0.0
                        CHANNELS 3 Zrotation Yrotation Xrotation
                        JOINT RightHandIndex4
                        {
                          OFFSET -2.327586 0.0 1e-06
                          CHANNELS 3 Zrotation Yrotation Xrotation
                          JOINT RightHandIndexEnd
                          {
                            OFFSET -2.76179 -0.180656 -0.113078
                            CHANNELS 3 Zrotation Yrotation Xrotation
                          }
                        }
                      }
                    }
                  }
                  JOINT RightHandMiddle1
                  {
                    OFFSET -3.168106 0.246593 1.00103
                    CHANNELS 3 Zrotation Yrotation Xrotation
                    JOINT RightHandMiddle2
                    {
                      OFFSET -6.180828 -0.258836 -1.000895
                      CHANNELS 3 Zrotation Yrotation Xrotation
                      JOINT RightHandMiddle3
                      {
                        OFFSET -4.348901 0.0 -0.0
                        CHANNELS 3 Zrotation Yrotation Xrotation
                        JOINT RightHandMiddle4
                        {
                          OFFSET -3.00024 -4e-06 -2e-06
                          CHANNELS 3 Zrotation Yrotation Xrotation
                          JOINT RightHandMiddleEnd
                          {
                            OFFSET -2.30252 -0.29437 -0.031706
                            CHANNELS 3 Zrotation Yrotation Xrotation
                          }
                        }
                      }
                    }
                  }
                  JOINT RightHandRing1
                  {
                    OFFSET -2.88569 -0.067952 -0.308858
                    CHANNELS 3 Zrotation Yrotation Xrotation
                    JOINT RightHandRing2
                    {
                      OFFSET -5.854198 -0.48613 -1.373731
                      CHANNELS 3 Zrotation Yrotation Xrotation
                      JOINT RightHandRing3
                      {
                        OFFSET -4.33881 -4e-06 -0.0
                        CHANNELS 3 Zrotation Yrotation Xrotation
                        JOINT RightHandRing4
                        {
                          OFFSET -2.654903 -4e-06 4e-06
                          CHANNELS 3 Zrotation Yrotation Xrotation
                          JOINT RightHandRingEnd
                          {
                            OFFSET -1.933568 0.077527 -5.2e-05
                            CHANNELS 3 Zrotation Yrotation Xrotation
                          }
                        }
                      }
                    }
                  }
                  JOINT RightHandPinky1
                  {
                    OFFSET -2.866425 -0.342796 -1.584145
                    CHANNELS 3 Zrotation Yrotation Xrotation
                    JOINT RightHandPinky2
                    {
                      OFFSET -5.091371 -1.332055 -1.772385
                      CHANNELS 3 Zrotation Yrotation Xrotation
                      JOINT RightHandPinky3
                      {
                        OFFSET -3.062664 -4e-06 1e-06
                        CHANNELS 3 Zrotation Yrotation Xrotation
                        JOINT RightHandPinky4
                        {
                          OFFSET -1.546529 4e-06 -2e-06
                          CHANNELS 3 Zrotation Yrotation Xrotation
                          JOINT RightHandPinkyEnd
                          {
                            OFFSET -1.945119 -0.157718 0.057211
                            CHANNELS 3 Zrotation Yrotation Xrotation
                          }
                        }
                      }
                    }
                  }
                }
              }
            }
          }
        }
      }
    }
    JOINT LeftLeg
    {
      OFFSET 10.043214 -8.434526 2.595655
      CHANNELS 3 Zrotation Yrotation Xrotation
      JOINT LeftShin
      {
        OFFSET -1e-06 -43.221752 -0.802913
        CHANNELS 3 Zrotation Yrotation Xrotation
        JOINT LeftFoot
        {
          OFFSET 1e-06 -42.155094 -3.481523
          CHANNELS 3 Zrotation Yrotation Xrotation
          JOINT LeftToeBase
          {
            OFFSET 0.0 -5.059472 13.231529
            CHANNELS 3 Zrotation Yrotation Xrotation
            JOINT LeftToeEnd
            {
              OFFSET -0.009607 -1.647619 6.513017
              CHANNELS 3 Zrotation Yrotation Xrotation
            }
          }
        }
      }
    }
    JOINT RightLeg
    {
      OFFSET -10.047278 -8.29526 2.620317
      CHANNELS 3 Zrotation Yrotation Xrotation
      JOINT RightShin
      {
        OFFSET 1e-06 -43.362206 -0.805556
        CHANNELS 3 Zrotation Yrotation Xrotation
        JOINT RightFoot
        {
          OFFSET 2e-06 -42.117393 -3.478398
          CHANNELS 3 Zrotation Yrotation Xrotation
          JOINT RightToeBase
          {
            OFFSET -0.0 -5.079609 13.284196
            CHANNELS 3 Zrotation Yrotation Xrotation
            JOINT RightToeEnd
            {
              OFFSET 0.009532 -1.634378 6.460591
              CHANNELS 3 Zrotation Yrotation Xrotation
            }
          }
        }
      }
    }
  }
}
MOTION
Frames: 4
Frame Time: 0.03333333333333333
0.0 0.0 0.0 0.0 -0.0 0.0 -3.926868 98.617989 -0.761383 -3.277019 -0.135338 6.640337 2.471754 0.261986 -3.867156 -0.126264 0.136493 -6.195962 0.344437 -1.613947 11.91952 1.855809 1.92645 0.248407 0.173527 2.725844 -3.687693 -6.877778 4.961096 -12.786139 7.7e-05 -2.2e-05 6e-06 0.020661 -0.158969 0.032347 0.708462 -3.909841 -10.595721 -0.675588 3.603533 -10.612916 -14.44185 -0.763175 14.985632 -56.404575 -20.328054 36.123581 -0.280874 -31.03845 0.152231 4.409476 3.696584 -6.926223 -5.882109 9.861288 0.702591 -10.936877 -0.360575 7.156211 1e-06 8.774829 1e-06 -16.077839 18.418352 6.29492 -1.844033 2.498506 -2.50728 -10.163603 4.678947 4.621112 -20.97603 -5e-06 2e-06 -21.226295 2.451695 -3.594001 1e-06 -4e-06 0.0 -1.362683 2.240799 -0.746323 -21.334925 0.58491 3.008328 -13.82122 -3e-06 3e-06 -23.887182 -0.249078 -0.839482 -60.683334 2.443252 -1.082221 -0.294024 1.679688 0.833256 -14.218215 0.093215 1.300581 -34.212059 -0.287562 0.967174 -20.033222 0.964538 1.212845 1e-06 0.0 -0.0 -3.44039 0.788233 0.501654 -15.928192 -3.167311 2.99971 -6.338829 -1e-06 1e-06 -18.123453 3.648184 -4.905669 -4e-06 -0.0 -1e-06 13.9116 7.176027 13.719815 60.969322 -1.532854 8.611294 0.251045 45.348392 0.327791 2.052065 -6.500505 -8.045948 2.243541 -5.255036 -3.180157 14.282887 -0.826592 6.952498 -4e-06 -12.690601 -1e-06 15.950767 -17.522856 2.623975 1.665666 -1.95592 -2.878297 4.727797 -4.170585 4.99392 11.020522 4e-06 -2e-06 12.109048 -3.735713 -2.866784 0.0 -0.0 -0.0 1.291985 -1.928549 -1.498089 14.80012 0.567471 3.865604 14.242565 -1.341733 -6.660656 19.631958 0.143929 -0.648244 49.731335 -0.744717 -6.383514 0.353029 -1.51115 -0.031939 20.222784 3.684312 2.316628 18.787266 8e-06 -0.0 10.751625 -0.479866 1.397905 0.0 0.0 -0.0 3.273806 0.305947 -0.580111 21.486809 11.830374 2.266132 8.162926 4e-06 -1e-06 18.399075 -3.79898 -4.940574 5e-06 0.0 -1e-06 1.720273 11.819776 -29.394154 0.085458 0.145798 23.927076 -1.808874 -0.783787 -1.175403 1.655257 -1.826021 -2.392603 -0.0 -0.0 2e-06 6.479415 -10.987743 -8.493963 -0.037791 -0.088084 15.718487 -0.635451 3.077178 -12.952109 -1.429685 1.187158 -0.676204 -0.0 0.0 -1e-06 
0.0 0.0 0.0 0.0 -0.0 0.0 -3.771314 98.644051 -0.430538 -3.053355 -0.100811 6.865357 2.342615 0.218401 -3.890551 -0.128967 0.191456 -6.217525 0.178735 -1.64188 11.840269 1.896054 1.955417 0.13544 0.119826 2.844894 -3.699124 -6.773957 4.874175 -12.615686 7.7e-05 -2.3e-05 6e-06 0.020119 -0.129851 0.016512 0.708867 -3.876269 -10.611578 -0.67696 3.625933 -10.630922 -14.373146 -0.819657 15.016499 -56.320396 -20.413458 35.674923 -0.371372 -31.10833 0.192087 4.209824 3.483639 -6.931606 -5.882109 9.861292 0.702592 -10.936878 -0.360577 7.156211 2e-06 8.774831 -0.0 -16.009039 18.323713 6.30398 -1.844033 2.498504 -2.507279 -10.163605 4.678946 4.621109 -20.976038 -6e-06 3e-06 -21.226301 2.451694 -3.594001 1e-06 -5e-06 0.0 -1.362681 2.2408 -0.746326 -21.334929 0.584906 3.008324 -13.821221 -4e-06 2e-06 -23.887188 -0.249083 -0.839482 -60.566006 2.42694 -0.984837 -0.294025 1.679689 0.833257 -14.218218 0.093213 1.300582 -34.21207 -0.287568 0.967173 -20.033226 0.964537 1.212846 1e-06 -1e-06 0.0 -3.44039 0.788233 0.501653 -15.9282 -3.167315 2.999709 -6.338831 -2e-06 -1e-06 -18.123459 3.648182 -4.905674 -4e-06 0.0 -2e-06 13.85479 7.229656 13.633026 60.902012 -1.374039 9.173429 0.098878 44.868683 0.231483 2.137676 -6.167984 -8.750798 2.243544 -5.25504 -3.180159 14.282904 -0.826594 6.952505 -4e-06 -12.690612 1e-06 16.070251 -17.571735 2.600882 1.665668 -1.955921 -2.878301 4.727802 -4.17059 4.993926 11.020536 4e-06 -2e-06 12.109063 -3.735717 -2.866784 0.0 -0.0 -0.0 1.291987 -1.92855 -1.498091 14.800142 0.56747 3.865608 14.242585 -1.341735 -6.660663 19.631987 0.143928 -0.648247 49.905556 -0.747303 -6.372622 0.353029 -1.511151 -0.03194 20.222811 3.684314 2.316629 18.787292 8e-06 -2e-06 10.751637 -0.479867 1.397905 -0.0 -0.0 -0.0 3.27381 0.305947 -0.580112 21.486837 11.830385 2.266132 8.162936 3e-06 -2e-06 18.399103 -3.798985 -4.94058 6e-06 0.0 -2e-06 1.432248 11.529922 -29.256426 0.066754 0.149966 23.634174 -1.987123 -0.560855 -1.426623 1.659672 -1.855026 -2.449905 -0.0 0.0 2e-06 6.130935 -11.004725 -8.582369 -0.020841 -0.083275 15.853445 -0.532018 3.070299 -13.068393 -1.434148 1.161827 -0.826084 -0.0 0.0 -1e-06 
0.0 0.0 0.0 0.0 -0.0 0.0 -3.396711 98.592262 0.318887 -2.93828 -0.011845 7.137189 2.268735 0.229154 -3.926584 -0.138835 0.218165 -6.243439 0.109091 -1.643024 11.781359 2.008347 1.980386 0.019514 0.09673 2.878516 -3.721708 -6.716557 4.784951 -12.486959 7.7e-05 -2.3e-05 6e-06 0.021417 -0.116341 0.011628 0.702988 -3.860449 -10.619025 -0.668456 3.635674 -10.631502 -14.307014 -0.887145 15.066304 -56.256786 -20.608204 35.411957 -0.391773 -31.272295 0.20903 3.998852 3.347816 -7.159122 -5.882109 9.861288 0.70259 -10.936873 -0.360573 7.156204 -1e-06 8.774826 0.0 -15.989465 18.332733 6.322663 -1.844033 2.498505 -2.507277 -10.163603 4.678947 4.621108 -20.976027 1e-06 -1e-06 -21.226294 2.451702 -3.594003 1e-06 -4e-06 -1e-06 -1.362682 2.240799 -0.746322 -21.334921 0.584912 3.008323 -13.821217 -1e-06 -0.0 -23.887175 -0.249078 -0.839486 -60.570007 2.487805 -1.009803 -0.294024 1.679687 0.833256 -14.218211 0.093217 1.300581 -34.212051 -0.28756 0.967167 -20.033216 0.964539 1.21284 1e-06 0.0 -0.0 -3.440389 0.788234 0.501655 -15.928189 -3.167307 2.999707 -6.338828 1e-06 -1e-06 -18.123449 3.648188 -4.905672 -3e-06 1e-06 -2e-06 13.779706 7.273682 13.555924 60.81377 -1.377949 9.546309 -0.01606 44.649384 0.10528 2.24107 -5.984584 -9.543585 2.243541 -5.255037 -3.180158 14.282889 -0.826594 6.952503 -3e-06 -12.690605 1e-06 16.114695 -17.600405 2.591803 1.665666 -1.955921 -2.878299 4.727798 -4.170588 4.993924 11.020525 3e-06 -2e-06 12.109051 -3.735716 -2.866784 0.0 -0.0 -0.0 1.291986 -1.928549 -1.498088 14.800129 0.567468 3.865608 14.242571 -1.341736 -6.660657 19.631968 0.143926 -0.648244 49.951496 -0.721032 -6.409995 0.353029 -1.511151 -0.03194 20.22279 3.684311 2.31663 18.787271 6e-06 -1e-06 10.751625 -0.479869 1.397906 -0.0 -0.0 0.0 3.273806 0.305948 -0.580111 21.486813 11.830376 2.266134 8.162926 2e-06 1e-06 18.39908 -3.798985 -4.940574 6e-06 0.0 -2e-06 1.157678 11.200273 -29.404917 0.052947 0.14913 24.362423 -1.920259 -0.411358 -2.337909 1.665519 -1.869613 -2.450521 0.0 0.0 2e-06 5.715415 -10.96864 -8.30671 -0.007112 -0.074013 15.731616 -0.187432 3.023192 -13.450515 -1.438093 1.140291 -0.846002 -0.0 0.0 -1e-06 
0.0 0.0 0.0 0.0 -0.0 0.0 -3.030569 98.484482 1.046353 -2.939111 0.124858 7.371035 2.23561 0.247054 -3.941922 -0.147652 0.253189 -6.269661 0.121379 -1.626536 11.747985 2.168296 1.99727 -0.046906 0.092933 2.912685 -3.734888 -6.678205 4.724158 -12.454125 7.7e-05 -2.3e-05 6e-06 0.021411 -0.115672 0.013463 0.696261 -3.857733 -10.625724 -0.661714 3.633527 -10.626687 -14.264234 -0.883543 15.111498 -56.219761 -20.934422 35.336029 -0.422664 -31.40004 0.218261 3.956543 3.188028 -7.350916 -5.882108 9.861285 0.702592 -10.936875 -0.360573 7.156212 -0.0 8.774824 0.0 -15.938298 18.341633 6.365561 -1.844033 2.498505 -2.507277 -10.163603 4.678945 4.62111 -20.976027 -1e-06 4e-06 -21.226294 2.4517 -3.594001 0.0 -4e-06 0.0 -1.362682 2.240798 -0.746325 -21.334917 0.584911 3.008327 -13.821217 -1e-06 2e-06 -23.887175 -0.249075 -0.839483 -60.56654 2.519614 -1.022966 -0.294025 1.679687 0.833257 -14.218213 0.093216 1.300584 -34.212059 -0.28756 0.967173 -20.033222 0.964539 1.212844 1e-06 0.0 -0.0 -3.44039 0.788234 0.501656 -15.928191 -3.167307 2.999708 -6.338828 1e-06 1e-06 -18.123451 3.648185 -4.905668 -3e-06 1e-06 -2e-06 13.708572 7.29447 13.52463 60.709023 -1.423228 9.830529 -0.124544 44.505936 -0.002389 2.377803 -5.877965 -10.183046 2.243542 -5.255036 -3.180157 14.282889 -0.826595 6.9525 -2e-06 -12.690605 2e-06 16.117579 -17.615711 2.605718 1.665666 -1.955921 -2.878299 4.727798 -4.170588 4.993923 11.020526 2e-06 -2e-06 12.109052 -3.735717 -2.866785 0.0 -0.0 -0.0 1.291986 -1.92855 -1.49809 14.800129 0.567467 3.865606 14.242575 -1.341737 -6.660659 19.631969 0.143927 -0.648246 49.96595 -0.698339 -6.419523 0.353029 -1.51115 -0.031939 20.222788 3.684309 2.31663 18.78727 4e-06 -2e-06 10.751625 -0.479868 1.397904 -0.0 -0.0 0.0 3.273806 0.305947 -0.580112 21.486809 11.830377 2.266132 8.162928 1e-06 -1e-06 18.399076 -3.798984 -4.940577 5e-06 0.0 -2e-06 1.000652 10.912514 -29.715357 0.04495 0.139513 25.442062 -1.767411 -0.279362 -3.378098 1.66684 -1.873688 -2.438841 0.0 0.0 2e-06 5.440351 -10.913281 -8.030014 -0.006263 -0.072202 15.670308 0.154913 2.940806 -13.940674 -1.442107 1.125945 -0.841732 -0.0 0.0 -1e-06 
